<svg xmlns="http://www.w3.org/2000/svg" version="1.1" xmlns:xlink="http://www.w3.org/1999/xlink" xmlns:svgjs="http://svgjs.dev/svgjs" width="2000" height="1500" viewBox="0 0 2000 1500"><rect width="2000" height="1500" fill="#333366"></rect><g transform="matrix(0.75,0,0,0.75,249.090909090909,658.923172434562)"><svg viewBox="0 0 396 48" data-background-color="#333366" preserveAspectRatio="xMidYMid meet" height="242" width="2000" xmlns="http://www.w3.org/2000/svg" xmlns:xlink="http://www.w3.org/1999/xlink"><g id="tight-bounds" transform="matrix(1,0,0,1,0.2400000000000091,0.08643373631417717)"><svg viewBox="0 0 395.52 47.82713252737162" height="47.82713252737162" width="395.52"><g><svg viewBox="0 0 460.7525778877225 55.71519671562555" height="47.82713252737162" width="395.52"><g transform="matrix(1,0,0,1,0,7.700146579366486)"><svg viewBox="0 0 395.52 40.31490355689258" height="40.31490355689258" width="395.52"><g id="textblocktransform"><svg viewBox="0 0 395.52 40.31490355689258" height="40.31490355689258" width="395.52" id="textblock"><g><svg viewBox="0 0 395.52 40.31490355689258" height="40.31490355689258" width="395.52"><g transform="matrix(1,0,0,1,0,0)"><svg width="395.52" viewBox="2.27 -40.43 413.87 42.19" height="40.31490355689258" data-palette-color="#ffffff"><path d="M31.37 0L31.37-14.75 33.13-18.07 33.13 0 31.37 0ZM34.89 0L34.89-21.48 36.65-24.8 36.65 0 34.89 0ZM38.4 0L38.4-28.13 40.16-31.47 40.16 0 38.4 0ZM39.7-40.43L26.61-15.58 25.61-17.41 37.72-40.43 39.7-40.43ZM35.72-40.43L24.58-19.41 23.56-21.26 33.72-40.43 35.72-40.43ZM12.82 0L12.82-17.87 14.58-14.55 14.58 0 12.82 0ZM9.3 0L9.3-24.56 11.06-21.24 11.06 0 9.3 0ZM5.79 0L5.79-31.25 7.54-27.91 7.54 0 5.79 0ZM4.25-40.43L20-10.55 18.02-10.55 4.03-37.08 4.03 0 2.27 0 2.27-40.43 4.25-40.43ZM8.25-40.43L23.97-10.55 21.97-10.55 6.25-40.43 8.25-40.43ZM41.92 0L41.92-37.08 27.93-10.55 25.93-10.55 10.23-40.43 12.21-40.43 26.95-12.4 41.67-40.43 43.68-40.43 43.68 0 41.92 0ZM57.1-35.16L57.1 0 55.34 0 55.34-35.16 57.1-35.16ZM53.59-35.16L53.59 0 51.83 0 51.83-35.16 53.59-35.16ZM50.07-35.16L50.07 0 48.31 0 48.31-35.16 50.07-35.16ZM60.62-13.21L60.62-8.79 77.44-8.79 77.44-7.03 60.62-7.03 60.62-5.27 77.44-5.27 77.44-3.52 60.62-3.52 60.62-1.76 77.44-1.76 77.44 0 58.86 0 58.86-35.16 77.44-35.16 77.44-33.4 60.62-33.4 60.62-31.64 77.44-31.64 77.44-29.88 60.62-29.88 60.62-28.13 77.44-28.13 77.44-26.37 60.62-26.37 60.62-22 76.46-22 76.46-20.24 60.62-20.24 60.62-18.48 76.46-18.48 76.46-16.72 60.62-16.72 60.62-14.97 76.46-14.97 76.46-13.21 60.62-13.21ZM81.66 0L81.66-35.16 83.42-35.16 83.42 0 81.66 0ZM92.21 0L92.21-35.16 93.96-35.16 93.96-8.79 106.93-8.79 106.93-7.03 93.96-7.03 93.96-5.27 106.93-5.27 106.93-3.52 93.96-3.52 93.96-1.76 106.93-1.76 106.93 0 92.21 0ZM88.69 0L88.69-35.16 90.45-35.16 90.45 0 88.69 0ZM85.18 0L85.18-35.16 86.93-35.16 86.93 0 85.18 0ZM121.35 0L121.35-35.16 123.11-35.16 123.11 0 121.35 0ZM117.84 0L117.84-35.16 119.6-35.16 119.6 0 117.84 0ZM114.32 0L114.32-35.16 116.08-35.16 116.08 0 114.32 0ZM110.81 0L110.81-35.16 112.57-35.16 112.57 0 110.81 0ZM143.86-16.72L143.86-16.72 141.08-16.72Q135.95-16.72 133.19-18.81 130.43-20.9 130.43-24.56L130.43-24.56Q130.43-27.98 133.68-30.26 136.93-32.54 142.79-32.54L142.79-32.54Q146.69-32.54 150.08-31.47 153.46-30.4 155.7-28.44L155.7-28.44 154.34-27.34Q152.33-28.98 149.31-29.88 146.28-30.79 142.79-30.79L142.79-30.79Q137.64-30.79 134.91-29.03 132.19-27.27 132.19-24.56L132.19-24.56Q132.19-21.63 134.43-20.06 136.66-18.48 141.08-18.48L141.08-18.48 143.76-18.48Q148.96-18.48 151.74-16.39 154.51-14.31 154.51-10.64L154.51-10.64Q154.51-7.23 151.26-4.94 148.01-2.66 142.15-2.66L142.15-2.66Q138.25-2.66 134.87-3.74 131.48-4.81 129.24-6.76L129.24-6.76 130.61-7.86Q132.61-6.23 135.63-5.32 138.66-4.42 142.15-4.42L142.15-4.42Q147.3-4.42 150.03-6.18 152.75-7.93 152.75-10.64L152.75-10.64Q152.75-13.57 150.51-15.15 148.28-16.72 143.86-16.72ZM143.86-13.21L143.86-13.21 141.08-13.21Q134.29-13.21 130.61-16.3 126.92-19.38 126.92-24.56L126.92-24.56Q126.92-26.93 127.97-29 129.02-31.08 130.98-32.65 132.95-34.23 136-35.14 139.05-36.06 142.79-36.06L142.79-36.06Q147.5-36.06 151.6-34.63 155.7-33.2 158.44-30.64L158.44-30.64 157.02-29.59Q154.53-31.84 150.8-33.07 147.06-34.3 142.79-34.3L142.79-34.3Q136.2-34.3 132.44-31.52 128.68-28.74 128.68-24.56L128.68-24.56Q128.68-20.14 131.9-17.55 135.12-14.97 141.08-14.97L141.08-14.97 143.76-14.97Q150.99-14.97 150.99-10.64L150.99-10.64Q150.99-8.69 148.78-7.43 146.57-6.18 142.15-6.18L142.15-6.18Q139.05-6.18 136.39-6.9 133.73-7.62 132-8.96L132-8.96 133.39-10.03Q136.44-7.93 142.15-7.93L142.15-7.93Q145.82-7.93 147.52-8.69 149.23-9.45 149.23-10.64L149.23-10.64Q149.23-12.04 148.04-12.62 146.84-13.21 143.86-13.21ZM143.86-20.24L143.86-20.24 141.08-20.24Q133.95-20.24 133.95-24.56L133.95-24.56Q133.95-26.51 136.16-27.77 138.37-29.03 142.79-29.03L142.79-29.03Q145.89-29.03 148.55-28.31 151.21-27.59 152.94-26.25L152.94-26.25 151.55-25.17Q148.5-27.27 142.79-27.27L142.79-27.27Q139.13-27.27 137.42-26.51 135.71-25.76 135.71-24.56L135.71-24.56Q135.71-23.17 136.9-22.58 138.1-22 141.08-22L141.08-22 143.86-22Q150.65-22 154.34-18.91 158.02-15.82 158.02-10.64L158.02-10.64Q158.02-8.28 156.97-6.2 155.92-4.13 153.96-2.55 151.99-0.98 148.94-0.06 145.89 0.85 142.15 0.85L142.15 0.85Q137.44 0.85 133.34-0.57 129.24-2 126.5-4.57L126.5-4.57 127.92-5.62Q130.41-3.37 134.15-2.14 137.88-0.9 142.15-0.9L142.15-0.9Q148.74-0.9 152.5-3.69 156.26-6.47 156.26-10.64L156.26-10.64Q156.26-15.06 153.04-17.65 149.82-20.24 143.86-20.24ZM178.01-16.72L178.01-16.72 175.23-16.72Q170.1-16.72 167.35-18.81 164.59-20.9 164.59-24.56L164.59-24.56Q164.59-27.98 167.83-30.26 171.08-32.54 176.94-32.54L176.94-32.54Q180.85-32.54 184.23-31.47 187.61-30.4 189.86-28.44L189.86-28.44 188.49-27.34Q186.49-28.98 183.46-29.88 180.43-30.79 176.94-30.79L176.94-30.79Q171.79-30.79 169.07-29.03 166.34-27.27 166.34-24.56L166.34-24.56Q166.34-21.63 168.58-20.06 170.81-18.48 175.23-18.48L175.23-18.48 177.92-18.48Q183.12-18.48 185.89-16.39 188.66-14.31 188.66-10.64L188.66-10.64Q188.66-7.23 185.41-4.94 182.17-2.66 176.31-2.66L176.31-2.66Q172.4-2.66 169.02-3.74 165.64-4.81 163.39-6.76L163.39-6.76 164.76-7.86Q166.76-6.23 169.79-5.32 172.81-4.42 176.31-4.42L176.31-4.42Q181.46-4.42 184.18-6.18 186.9-7.93 186.9-10.64L186.9-10.64Q186.9-13.57 184.67-15.15 182.43-16.72 178.01-16.72ZM178.01-13.21L178.01-13.21 175.23-13.21Q168.44-13.21 164.76-16.3 161.07-19.38 161.07-24.56L161.07-24.56Q161.07-26.93 162.12-29 163.17-31.08 165.14-32.65 167.1-34.23 170.15-35.14 173.21-36.06 176.94-36.06L176.94-36.06Q181.65-36.06 185.75-34.63 189.86-33.2 192.59-30.64L192.59-30.64 191.17-29.59Q188.68-31.84 184.95-33.07 181.21-34.3 176.94-34.3L176.94-34.3Q170.35-34.3 166.59-31.52 162.83-28.74 162.83-24.56L162.83-24.56Q162.83-20.14 166.05-17.55 169.27-14.97 175.23-14.97L175.23-14.97 177.92-14.97Q185.14-14.97 185.14-10.64L185.14-10.64Q185.14-8.69 182.93-7.43 180.72-6.18 176.31-6.18L176.31-6.18Q173.21-6.18 170.54-6.9 167.88-7.62 166.15-8.96L166.15-8.96 167.54-10.03Q170.59-7.93 176.31-7.93L176.31-7.93Q179.97-7.93 181.68-8.69 183.39-9.45 183.39-10.64L183.39-10.64Q183.39-12.04 182.19-12.62 180.99-13.21 178.01-13.21ZM178.01-20.24L178.01-20.24 175.23-20.24Q168.1-20.24 168.1-24.56L168.1-24.56Q168.1-26.51 170.31-27.77 172.52-29.03 176.94-29.03L176.94-29.03Q180.04-29.03 182.7-28.31 185.36-27.59 187.1-26.25L187.1-26.25 185.71-25.17Q182.65-27.27 176.94-27.27L176.94-27.27Q173.28-27.27 171.57-26.51 169.86-25.76 169.86-24.56L169.86-24.56Q169.86-23.17 171.06-22.58 172.25-22 175.23-22L175.23-22 178.01-22Q184.8-22 188.49-18.91 192.18-15.82 192.18-10.64L192.18-10.64Q192.18-8.28 191.13-6.2 190.08-4.13 188.11-2.55 186.14-0.98 183.09-0.06 180.04 0.85 176.31 0.85L176.31 0.85Q171.59 0.85 167.49-0.57 163.39-2 160.66-4.57L160.66-4.57 162.07-5.62Q164.56-3.37 168.3-2.14 172.03-0.9 176.31-0.9L176.31-0.9Q182.9-0.9 186.66-3.69 190.42-6.47 190.42-10.64L190.42-10.64Q190.42-15.06 187.19-17.65 183.97-20.24 178.01-20.24ZM220.96 0L220.96-17.33Q220.96-20.46 219.03-22.17 217.1-23.88 213.93-23.88L213.93-23.88Q211.24-23.88 209.31-22.02 207.38-20.17 207.38-17.58L207.38-17.58Q207.38-16.11 207.77-14.95 208.16-13.79 208.84-13.02 209.51-12.26 210.43-11.76 211.36-11.25 212.38-11.04 213.39-10.82 214.54-10.82L214.54-10.82Q217.32-10.82 219.61-12.18L219.61-12.18 219.61-10.42Q217.25-9.18 214.51-9.18L214.51-9.18Q212.75-9.18 211.2-9.66 209.65-10.13 208.38-11.1 207.11-12.06 206.37-13.73 205.62-15.41 205.62-17.58L205.62-17.58Q205.62-20.95 207.99-23.29 210.36-25.63 213.93-25.63L213.93-25.63Q217.86-25.63 220.29-23.43 222.71-21.22 222.71-17.33L222.71-17.33 222.71 0 220.96 0ZM226.23-17.33L226.23-17.33 226.23 0 224.47 0 224.47-17.33Q224.47-21.95 221.52-24.67 218.56-27.39 213.93-27.39L213.93-27.39Q209.63-27.39 206.75-24.54 203.87-21.68 203.87-17.58L203.87-17.58Q203.87-15.09 204.73-13.11 205.6-11.13 207.09-9.94 208.58-8.74 210.42-8.12 212.27-7.5 214.32-7.5L214.32-7.5Q217.1-7.5 219.61-8.79L219.61-8.79 219.61-6.93Q216.98-5.83 214.29-5.83L214.29-5.83Q211.87-5.83 209.7-6.58 207.53-7.32 205.82-8.75 204.11-10.18 203.11-12.46 202.11-14.75 202.11-17.58L202.11-17.58Q202.11-22.39 205.51-25.77 208.92-29.15 213.93-29.15L213.93-29.15Q217.44-29.15 220.22-27.72 223.01-26.29 224.62-23.58 226.23-20.87 226.23-17.33ZM229.75-17.33L229.75-17.33 229.75 0 227.99 0 227.99-17.33Q227.99-21.36 226.14-24.48 224.3-27.59 221.1-29.25 217.9-30.91 213.93-30.91L213.93-30.91Q210.14-30.91 207.02-29.11 203.89-27.32 202.12-24.27 200.35-21.22 200.35-17.58L200.35-17.58Q200.35-14.45 201.5-11.88 202.65-9.3 204.59-7.64 206.53-5.98 209.01-5.07 211.48-4.15 214.19-4.15L214.19-4.15Q216.95-4.15 219.61-5.3L219.61-5.3 219.61-3.52Q216.83-2.47 214.15-2.47L214.15-2.47Q209.92-2.47 206.38-4.37 202.84-6.27 200.72-9.77 198.59-13.26 198.59-17.58L198.59-17.58Q198.59-20.65 199.78-23.44 200.96-26.22 202.99-28.25 205.01-30.27 207.87-31.47 210.73-32.67 213.93-32.67L213.93-32.67Q218.39-32.67 221.99-30.76 225.6-28.86 227.67-25.34 229.75-21.83 229.75-17.33ZM233.26-17.33L233.26-17.33 233.26 0 231.5 0 231.5-17.33Q231.5-22.31 229.18-26.23 226.86-30.15 222.86-32.29 218.86-34.42 213.93-34.42L213.93-34.42Q209.19-34.42 205.26-32.15 201.33-29.88 199.08-26.01 196.84-22.14 196.84-17.58L196.84-17.58Q196.84-14.58 197.8-11.88 198.76-9.18 200.44-7.17 202.11-5.15 204.29-3.69 206.48-2.22 209.01-1.46 211.53-0.71 214.15-0.71L214.15-0.71Q217.03-0.71 219.61-1.81L219.61-1.81 219.61 0Q216.9 0.95 214.05 0.95L214.05 0.95Q211.09 0.95 208.3 0.12 205.5-0.71 203.12-2.33 200.74-3.96 198.94-6.16 197.13-8.37 196.1-11.33 195.08-14.28 195.08-17.58L195.08-17.58Q195.08-21.36 196.51-24.79 197.93-28.22 200.41-30.73 202.89-33.23 206.42-34.7 209.95-36.18 213.93-36.18L213.93-36.18Q217.98-36.18 221.54-34.81 225.11-33.45 227.69-31.02 230.28-28.59 231.77-25.05 233.26-21.51 233.26-17.33ZM262.34-12.62L262.34-17.82 264.09-17.82 264.09 0Q260.19 1.76 256.01 1.76L256.01 1.76Q252.08 1.76 248.51 0.22 244.93-1.32 242.34-3.91 239.75-6.49 238.21-10.07 236.68-13.65 236.68-17.58 236.68-21.51 238.21-25.09 239.75-28.66 242.34-31.25 244.93-33.84 248.51-35.38 252.08-36.91 256.01-36.91L256.01-36.91Q260.5-36.91 264.46-34.97 268.42-33.03 271.13-29.64L271.13-29.64 269.71-28.59Q267.24-31.64 263.67-33.4 260.09-35.16 256.01-35.16L256.01-35.16Q252.45-35.16 249.19-33.76 245.93-32.37 243.57-30.02 241.22-27.66 239.83-24.4 238.43-21.14 238.43-17.58 238.43-14.01 239.83-10.75 241.22-7.5 243.57-5.14 245.93-2.78 249.19-1.39 252.45 0 256.01 0L256.01 0Q259.31 0 262.34-1.17L262.34-1.17 262.34-2.98Q259.28-1.76 256.01-1.76L256.01-1.76Q252.79-1.76 249.86-3.02 246.93-4.27 244.82-6.38 242.71-8.5 241.45-11.43 240.19-14.36 240.19-17.58 240.19-20.8 241.45-23.73 242.71-26.66 244.82-28.77 246.93-30.88 249.86-32.14 252.79-33.4 256.01-33.4L256.01-33.4Q259.7-33.4 262.93-31.81 266.17-30.22 268.39-27.44L268.39-27.44 267.02-26.34Q265.05-28.81 262.17-30.22 259.28-31.64 256.01-31.64L256.01-31.64Q253.16-31.64 250.56-30.53 247.96-29.42 246.06-27.53 244.17-25.63 243.06-23.03 241.95-20.43 241.95-17.58 241.95-14.72 243.06-12.12 244.17-9.52 246.06-7.63 247.96-5.74 250.56-4.63 253.16-3.52 256.01-3.52L256.01-3.52Q259.38-3.52 262.34-4.88L262.34-4.88 262.34-6.69Q259.38-5.27 256.01-5.27L256.01-5.27Q252.67-5.27 249.84-6.92 247-8.57 245.36-11.4 243.71-14.23 243.71-17.58 243.71-20.92 245.36-23.75 247-26.59 249.84-28.23 252.67-29.88 256.01-29.88L256.01-29.88Q258.87-29.88 261.4-28.65 263.92-27.42 265.63-25.24L265.63-25.24 264.24-24.17Q262.78-26.03 260.61-27.08 258.45-28.13 256.01-28.13L256.01-28.13Q251.64-28.13 248.55-25.02 245.47-21.92 245.47-17.58 245.47-13.23 248.55-10.13 251.64-7.03 256.01-7.03L256.01-7.03Q259.43-7.03 262.34-8.69L262.34-8.69 262.34-10.47Q259.48-8.79 256.01-8.79L256.01-8.79Q252.38-8.79 249.8-11.36 247.22-13.94 247.22-17.58 247.22-21.22 249.8-23.79 252.38-26.37 256.01-26.37L256.01-26.37Q258.06-26.37 259.87-25.48 261.68-24.58 262.9-23.05L262.9-23.05 261.48-21.97Q259.36-24.61 256.01-24.61L256.01-24.61Q253.11-24.61 251.04-22.55 248.98-20.48 248.98-17.58 248.98-14.67 251.04-12.61 253.11-10.55 256.01-10.55L256.01-10.55Q259.75-10.55 262.34-12.62L262.34-12.62ZM272.88 0L272.88-17.82 274.64-17.82 274.64 0 272.88 0ZM269.37 0L269.37-17.82 271.13-17.82 271.13 0 269.37 0ZM265.85 0L265.85-17.82 267.61-17.82 267.61 0 265.85 0ZM292.24-15.04L292.24-16.8 302.84-16.8Q304.94-16.8 306.4-18.12 307.87-19.43 307.87-21.83L307.87-21.83Q307.87-23.58 306.34-24.98 304.81-26.37 302.84-26.37L302.84-26.37 287.75-26.37 287.75 0 285.99 0 285.99-28.13 302.84-28.13Q305.55-28.13 307.58-26.22 309.62-24.32 309.62-21.83L309.62-21.83Q309.62-18.73 307.65-16.88 305.67-15.04 302.84-15.04L302.84-15.04 292.24-15.04ZM292.24-11.52L292.24-13.28 302.84-13.28Q306.35-13.28 308.87-15.67 311.38-18.07 311.38-21.83L311.38-21.83Q311.38-25.02 308.82-27.45 306.25-29.88 302.84-29.88L302.84-29.88 284.23-29.88 284.23 0 282.48 0 282.48-31.64 302.84-31.64Q306.99-31.64 310.06-28.7 313.14-25.76 313.14-21.83L313.14-21.83Q313.14-17.43 310.1-14.48 307.06-11.52 302.84-11.52L302.84-11.52 292.24-11.52ZM292.24-8.01L292.24-9.77 302.84-9.77Q306.08-9.77 308.84-11.33 311.6-12.89 313.25-15.67 314.9-18.46 314.9-21.83L314.9-21.83Q314.9-24.88 313.26-27.55 311.63-30.22 308.83-31.81 306.03-33.4 302.84-33.4L302.84-33.4 280.72-33.4 280.72 0 278.96 0 278.96-35.16 302.84-35.16Q305.6-35.16 308.15-34.07 310.7-32.98 312.55-31.19 314.41-29.39 315.53-26.93 316.65-24.46 316.65-21.83L316.65-21.83Q316.65-17.55 314.7-14.37 312.75-11.18 309.45-9.52L309.45-9.52 313.14 0 311.26 0 307.77-8.81Q307.11-8.59 306.23-8.37L306.23-8.37 309.53 0 307.65 0 304.42-8.08Q303.67-8.01 302.84-8.01L302.84-8.01 305.94 0 304.08 0 301.01-8.01 299.42-8.01 302.37 0 300.52 0 297.54-8.01 292.24-8.01ZM291.26-22.85L291.26 0 289.51 0 289.51-24.61 302.84-24.61Q304.2-24.61 305.16-23.79 306.11-22.97 306.11-21.83L306.11-21.83Q306.11-18.55 302.84-18.55L302.84-18.55 292.24-18.55 292.24-20.31 302.84-20.31Q304.35-20.31 304.35-21.83L304.35-21.83Q304.35-22.24 303.9-22.55 303.45-22.85 302.84-22.85L302.84-22.85 291.26-22.85ZM345.49 0L345.49-17.33Q345.49-20.46 343.56-22.17 341.63-23.88 338.45-23.88L338.45-23.88Q335.77-23.88 333.84-22.02 331.91-20.17 331.91-17.58L331.91-17.58Q331.91-16.11 332.3-14.95 332.69-13.79 333.36-13.02 334.04-12.26 334.96-11.76 335.89-11.25 336.9-11.04 337.92-10.82 339.06-10.82L339.06-10.82Q341.85-10.82 344.14-12.18L344.14-12.18 344.14-10.42Q341.77-9.18 339.04-9.18L339.04-9.18Q337.28-9.18 335.73-9.66 334.18-10.13 332.91-11.1 331.64-12.06 330.9-13.73 330.15-15.41 330.15-17.58L330.15-17.58Q330.15-20.95 332.52-23.29 334.89-25.63 338.45-25.63L338.45-25.63Q342.38-25.63 344.81-23.43 347.24-21.22 347.24-17.33L347.24-17.33 347.24 0 345.49 0ZM350.76-17.33L350.76-17.33 350.76 0 349 0 349-17.33Q349-21.95 346.05-24.67 343.09-27.39 338.45-27.39L338.45-27.39Q334.16-27.39 331.28-24.54 328.4-21.68 328.4-17.58L328.4-17.58Q328.4-15.09 329.26-13.11 330.13-11.13 331.62-9.94 333.11-8.74 334.95-8.12 336.79-7.5 338.84-7.5L338.84-7.5Q341.63-7.5 344.14-8.79L344.14-8.79 344.14-6.93Q341.51-5.83 338.82-5.83L338.82-5.83Q336.4-5.83 334.23-6.58 332.06-7.32 330.35-8.75 328.64-10.18 327.64-12.46 326.64-14.75 326.64-17.58L326.64-17.58Q326.64-22.39 330.04-25.77 333.45-29.15 338.45-29.15L338.45-29.15Q341.97-29.15 344.75-27.72 347.54-26.29 349.15-23.58 350.76-20.87 350.76-17.33ZM354.27-17.33L354.27-17.33 354.27 0 352.52 0 352.52-17.33Q352.52-21.36 350.67-24.48 348.83-27.59 345.63-29.25 342.43-30.91 338.45-30.91L338.45-30.91Q334.67-30.91 331.54-29.11 328.42-27.32 326.65-24.27 324.88-21.22 324.88-17.58L324.88-17.58Q324.88-14.45 326.03-11.88 327.17-9.3 329.12-7.64 331.06-5.98 333.53-5.07 336.01-4.15 338.72-4.15L338.72-4.15Q341.48-4.15 344.14-5.3L344.14-5.3 344.14-3.52Q341.36-2.47 338.67-2.47L338.67-2.47Q334.45-2.47 330.91-4.37 327.37-6.27 325.25-9.77 323.12-13.26 323.12-17.58L323.12-17.58Q323.12-20.65 324.31-23.44 325.49-26.22 327.52-28.25 329.54-30.27 332.4-31.47 335.26-32.67 338.45-32.67L338.45-32.67Q342.92-32.67 346.52-30.76 350.12-28.86 352.2-25.34 354.27-21.83 354.27-17.33ZM357.79-17.33L357.79-17.33 357.79 0 356.03 0 356.03-17.33Q356.03-22.31 353.71-26.23 351.39-30.15 347.39-32.29 343.39-34.42 338.45-34.42L338.45-34.42Q333.72-34.42 329.79-32.15 325.86-29.88 323.61-26.01 321.36-22.14 321.36-17.58L321.36-17.58Q321.36-14.58 322.33-11.88 323.29-9.18 324.97-7.17 326.64-5.15 328.82-3.69 331.01-2.22 333.53-1.46 336.06-0.71 338.67-0.71L338.67-0.71Q341.55-0.71 344.14-1.81L344.14-1.81 344.14 0Q341.43 0.95 338.58 0.95L338.58 0.95Q335.62 0.95 332.83 0.12 330.03-0.71 327.65-2.33 325.27-3.96 323.46-6.16 321.66-8.37 320.63-11.33 319.61-14.28 319.61-17.58L319.61-17.58Q319.61-21.36 321.03-24.79 322.46-28.22 324.94-30.73 327.42-33.23 330.95-34.7 334.47-36.18 338.45-36.18L338.45-36.18Q342.51-36.18 346.07-34.81 349.64-33.45 352.22-31.02 354.81-28.59 356.3-25.05 357.79-21.51 357.79-17.33ZM384.59-21.97L384.59-21.97 384.59 0 382.84 0 382.84-21.97Q382.84-22.68 382.6-23.18 382.37-23.68 382.01-23.95 381.64-24.22 381.04-24.38 380.44-24.54 379.88-24.57 379.32-24.61 378.49-24.61 377.66-24.61 377.1-24.57 376.54-24.54 375.94-24.38 375.34-24.22 374.98-23.95 374.61-23.68 374.38-23.18 374.14-22.68 374.14-21.97L374.14-21.97 374.14 0 372.39 0 372.39-21.97Q372.39-26.37 378.49-26.37 384.59-26.37 384.59-21.97ZM388.11-21.97L388.11-21.97 388.11 0 386.35 0 386.35-21.97Q386.35-25.07 384.17-26.6 381.98-28.13 378.49-28.13 375-28.13 372.81-26.6 370.63-25.07 370.63-21.97L370.63-21.97 370.63 0 368.87 0 368.87-21.97Q368.87-24.54 370.19-26.37 371.51-28.2 373.64-29.04 375.78-29.88 378.49-29.88 381.2-29.88 383.34-29.04 385.47-28.2 386.79-26.37 388.11-24.54 388.11-21.97ZM391.63-21.97L391.63-21.97 391.63 0 389.87 0 389.87-21.97Q389.87-24.27 388.98-26.12 388.09-27.98 386.52-29.17 384.96-30.37 382.91-31.01 380.86-31.64 378.49-31.64 376.12-31.64 374.07-31.01 372.02-30.37 370.46-29.17 368.9-27.98 368-26.12 367.11-24.27 367.11-21.97L367.11-21.97 367.11 0 365.36 0 365.36-21.97Q365.36-24.63 366.39-26.81 367.43-28.98 369.21-30.41 371-31.84 373.39-32.62 375.78-33.4 378.49-33.4 381.2-33.4 383.59-32.62 385.99-31.84 387.77-30.41 389.55-28.98 390.59-26.81 391.63-24.63 391.63-21.97ZM395.14-21.97L395.14 0 393.38 0 393.38-21.97Q393.38-24.63 392.2-27.08 391.02-29.52 389.01-31.29 387.01-33.06 384.25-34.11 381.49-35.16 378.49-35.16L378.49-35.16Q374.36-35.16 371.01-33.61 367.65-32.06 365.62-29.02 363.6-25.98 363.6-21.97L363.6-21.97 363.6 0 361.84 0 361.84-21.97Q361.84-25.34 363.16-28.17 364.48-31.01 366.74-32.91 368.99-34.81 372.03-35.86 375.07-36.91 378.49-36.91L378.49-36.91Q384.55-36.91 388.99-33.86L388.99-33.86Q393.43-36.91 399.49-36.91L399.49-36.91Q402.9-36.91 405.94-35.86 408.98-34.81 411.24-32.91 413.5-31.01 414.82-28.17 416.14-25.34 416.14-21.97L416.14-21.97 416.14 0 414.38 0 414.38-21.97Q414.38-25.95 412.35-28.99 410.33-32.03 406.97-33.59 403.61-35.16 399.49-35.16L399.49-35.16Q394.31-35.16 390.45-32.71L390.45-32.71Q391.02-32.23 391.7-31.45L391.7-31.45Q395.04-33.4 399.49-33.4L399.49-33.4Q402.2-33.4 404.59-32.62 406.98-31.84 408.76-30.41 410.55-28.98 411.58-26.81 412.62-24.63 412.62-21.97L412.62-21.97 412.62 0 410.86 0 410.86-21.97Q410.86-24.27 409.97-26.12 409.08-27.98 407.52-29.17 405.96-30.37 403.91-31.01 401.85-31.64 399.49-31.64L399.49-31.64Q395.6-31.64 392.77-30.05L392.77-30.05Q393.21-29.37 393.65-28.54L393.65-28.54Q396.04-29.88 399.49-29.88L399.49-29.88Q402.2-29.88 404.33-29.04 406.47-28.2 407.79-26.37 409.11-24.54 409.11-21.97L409.11-21.97 409.11 0 407.35 0 407.35-21.97Q407.35-25.07 405.16-26.6 402.98-28.13 399.49-28.13L399.49-28.13Q396.31-28.13 394.34-26.95L394.34-26.95Q394.65-26.03 394.82-25.2L394.82-25.2Q396.36-26.37 399.49-26.37L399.49-26.37Q405.59-26.37 405.59-21.97L405.59-21.97 405.59 0 403.83 0 403.83-21.97Q403.83-22.68 403.6-23.18 403.37-23.68 403-23.95 402.64-24.22 402.04-24.38 401.44-24.54 400.88-24.57 400.32-24.61 399.49-24.61 398.66-24.61 398.1-24.57 397.53-24.54 396.94-24.38 396.34-24.22 395.97-23.95 395.6-23.68 395.37-23.18 395.14-22.68 395.14-21.97L395.14-21.97Z" opacity="1" transform="matrix(1,0,0,1,0,0)" fill="#ffffff" class="wordmark-text-0" data-fill-palette-color="primary" id="text-0"></path></svg></g></svg></g></svg></g></svg></g><g transform="matrix(1,0,0,1,405.03738117209696,0)"><svg viewBox="0 0 55.71519671562555 55.71519671562555" height="55.71519671562555" width="55.71519671562555"><g data-palette-color="#ffffff"><rect width="15.228820435604318" height="55.71519671562555" fill="#ffffff" stroke="transparent" data-fill-palette-color="accent" x="0" fill-opacity="1"></rect><rect width="15.228820435604318" height="55.71519671562555" fill="#ffffff" stroke="transparent" data-fill-palette-color="accent" x="18.571732238541852" fill-opacity="0.75"></rect><rect width="15.228820435604318" height="55.71519671562555" fill="#ffffff" stroke="transparent" data-fill-palette-color="accent" x="37.143464477083704" fill-opacity="0.5"></rect></g></svg></g></svg></g><defs></defs></svg><rect width="395.52" height="47.82713252737162" fill="none" stroke="none" visibility="hidden"></rect></g></svg></g></svg>